<svg width="96" height="96" viewBox="0 0 96 96" fill="none" xmlns="http://www.w3.org/2000/svg">
<path fill-rule="evenodd" clip-rule="evenodd" d="M63.2997 64.8704C62.8896 65.3797 62.4897 65.8971 62.1066 66.4267C60.2547 68.9884 57.9428 71.26 55.9034 73.6815C54.7186 75.3151 52.7965 77.2341 52.2377 79.162C51.6924 81.0434 51.5266 83.265 52.4425 85.0648C53.0227 86.2051 54.0866 87.166 55.4289 87.1998C56.6194 87.2299 57.5725 86.5092 58.1945 85.5506C58.8517 84.538 59.0372 82.8201 58.9442 81.4336L58.9317 81.4485L58.8788 81.5071L58.816 81.5711L58.7371 81.6428L58.6789 81.6911L58.6184 81.7368L58.5732 81.7684L58.5576 81.7787C58.5354 81.7935 58.5131 81.8077 58.4903 81.8212L58.4201 81.8611L58.3934 81.8752C58.3579 81.8937 58.3216 81.9107 58.2849 81.9262L58.2474 81.9419L58.1748 81.9689L58.0879 81.9964L58.0163 82.0153L57.9493 82.0298L57.9076 82.0375L57.8315 82.0484L57.7526 82.0562L57.6704 82.0599L57.6299 82.0603L57.5826 82.0594L57.5357 82.0574L57.4903 82.0541L57.4423 82.0493L57.3975 82.0433L57.3526 82.0361L57.3069 82.0276L57.2619 82.0178L57.218 82.0069L57.1745 81.9949L57.1313 81.9817L57.0872 81.9672L57.0451 81.9514L57.0044 81.9353L56.9613 81.9168L56.9217 81.8986L56.8803 81.8782L56.8417 81.8577L56.8028 81.8361L56.7642 81.8131L56.7254 81.7889L56.6884 81.7642L56.6518 81.7384L56.6165 81.7123L56.5805 81.6843L56.5452 81.6553L56.5121 81.6266L56.4788 81.5965L56.4462 81.5656L56.4143 81.5339L56.3833 81.5013L56.3528 81.4679L56.3233 81.4338L56.2945 81.399L56.2663 81.3633L56.2391 81.3273L56.2125 81.2899L56.1867 81.2522L56.1614 81.2133L56.1147 81.1354L56.0927 81.0957L56.071 81.0543L56.0505 81.0133L56.0305 80.9709L56.0117 80.9283L55.9943 80.8858L55.977 80.8417L55.9607 80.7966L55.9459 80.7529L55.932 80.7081L55.9188 80.6621L55.9067 80.6167L55.8953 80.5697L55.8851 80.5227L55.876 80.4751L55.868 80.4272L55.8611 80.3801L55.8548 80.3305L55.85 80.2819L55.8462 80.233L55.8437 80.1837L55.8421 80.1344L55.8416 80.0836L55.8425 80.0339L55.8441 79.9844L55.8471 79.9351L55.8508 79.8862L55.856 79.836L55.8622 79.7889L55.8691 79.7407L55.8774 79.6927L55.8866 79.6453L55.8971 79.598L55.9083 79.5523L55.9208 79.5054L55.9339 79.4606L55.9478 79.4162L55.9633 79.3705L55.9798 79.3254L56.0146 79.2395L56.0334 79.1976L56.0534 79.1555L56.0744 79.1135L56.0956 79.0733L56.1179 79.0334L56.1415 78.9934L56.1655 78.9546L56.1907 78.9163L56.2165 78.8785L56.2431 78.8416L56.2707 78.8055L56.2989 78.77L56.3278 78.7352L56.3575 78.7011L56.3874 78.6686L56.4191 78.6354L56.4511 78.6037L56.484 78.5727L56.5173 78.5428L56.5513 78.5137L56.5861 78.4854L56.6216 78.4578L56.6572 78.4317L56.6952 78.4052L56.771 78.3564L56.8483 78.3126L56.8869 78.2924L56.9278 78.2723L56.9701 78.253L57.0103 78.2362L57.0534 78.2192L57.0946 78.2044L57.1387 78.1898L57.1814 78.177L57.2252 78.1651L57.2699 78.1542L57.3158 78.1445L57.3598 78.1364L57.4047 78.1296L57.452 78.1235L57.4973 78.1192L57.544 78.1158L57.5909 78.1138L57.6971 78.1142L57.7315 78.1158L57.7898 78.1206L57.8789 78.1313L57.9678 78.1473L58.055 78.1679L58.1424 78.1935L58.1964 78.212L58.2778 78.2442L58.3348 78.2697L58.3857 78.2945L58.4631 78.3363L58.5149 78.3672L58.588 78.4152L58.6579 78.4662L58.7249 78.5204L58.7703 78.5599L58.8344 78.6206L58.8962 78.6849L58.9529 78.7498L59.0095 78.8206L59.0614 78.8924L59.1109 78.9676L59.1327 79.0032L59.1599 79.0504C60.8277 81.3114 60.745 84.1528 59.2478 86.4882C58.3292 87.9212 56.9191 89.1432 55.1031 88.9858C53.2552 88.8258 51.844 87.3169 51.0898 85.7381C50.0541 83.5702 50.0233 81.0338 50.684 78.754C51.3065 76.6062 53.1774 74.3846 54.4954 72.5655C55.6355 71.1201 56.8125 69.7115 57.9956 68.3014C58.9034 67.2191 59.8188 66.1315 60.654 64.9922C60.8064 64.7845 60.9624 64.5795 61.1215 64.3767C62.51 62.6088 64.1158 60.9957 65.5483 59.2532C67.6042 56.7525 69.2691 54.1202 70.7199 51.2303C73.7489 43.9259 74.9937 39.9971 73.8639 31.9362C73.3344 28.1585 72.5445 24.3297 71.0879 20.7891C70.7317 20.1165 70.2739 19.4515 69.84 18.8261C69.273 18.0088 68.6875 17.2037 68.1109 16.3932C67.3807 15.3664 66.6389 14.3157 66.0025 13.2292C65.5662 12.4848 65.1116 11.7302 64.7187 10.9628C64.5567 10.6465 64.1471 9.90329 64.3768 9.55629C64.611 9.20246 64.9739 9.15023 65.3093 9.40716C66.7741 10.5297 69.0345 10.9998 70.8105 11.4067C71.5711 11.581 72.3319 11.7554 73.0849 11.9596C77.7319 13.2183 80.5441 15.4132 81.4888 20.4011C81.518 20.5551 81.5615 20.8264 81.6124 21.0853C82.0056 19.8632 82.4745 16.7184 82.5751 16.0015C82.5819 15.9551 82.5884 15.9088 82.6002 15.8631L82.7277 15.372H83.2162C83.5237 15.372 83.8037 15.5639 84.018 15.7665C84.9252 16.6229 85.853 18.5196 86.3257 19.6571C87.1221 21.5733 87.705 23.7705 87.705 25.8564C87.705 27.6215 87.285 29.3533 86.1506 30.7454C85.3438 31.7351 84.8835 32.9827 85.4504 34.2034C85.6298 34.5896 85.8991 34.938 86.225 35.2136C86.487 35.4355 86.8146 35.6324 87.1523 35.7111C87.387 35.7658 87.7055 35.7773 87.83 35.527C88.2488 34.6859 88.8116 33.9266 89.3698 33.1735C90.2859 31.9379 91.4993 30.419 91.0476 28.7806L90.744 27.6793L91.8137 27.9528C92.5961 28.1528 93.4729 29.3798 93.8445 30.0236C94.4613 31.0918 94.8919 32.3041 95.2035 33.4922C95.7837 35.7059 96.0624 38.6919 95.9883 40.9559C95.973 41.4203 95.9428 41.8842 95.8926 42.3462C95.6821 44.2879 95.0921 46.4979 93.5071 47.7886C92.3034 48.7687 90.4571 48.9998 88.9528 49.1984C88.6139 49.2431 86.4055 49.4585 86.4084 49.9476L86.4093 50.0992L86.3468 50.2361C86.3296 50.2737 86.2971 50.3559 86.3056 50.399C86.3192 50.4691 86.4835 50.5674 86.5393 50.597C86.8187 50.7454 87.1854 50.819 87.4975 50.8564C88.4831 50.9745 89.8504 50.8214 90.7175 50.316L92.0541 49.5372L91.6447 51.0727C90.8237 54.1519 88.7334 54.797 85.9033 55.2114C85.2157 55.312 83.7868 55.4248 83.4145 56.1566C83.607 56.2901 83.9931 56.4263 84.136 56.4718C84.7667 56.6726 85.4684 56.7717 86.1286 56.8011C88.0174 56.8857 90.1473 56.4189 91.4421 54.9502C91.6883 54.6708 92.024 54.4593 92.4118 54.5413C93.1999 54.7072 93.2602 55.8786 93.2249 56.5024C93.1679 57.502 92.8959 58.5704 92.5543 59.5087C90.9559 63.8993 87.4599 66.884 82.6155 66.884C80.4906 66.884 78.946 66.432 77.2163 65.2518C77.1745 65.2231 77.099 65.169 77.021 65.1165C76.9743 65.3226 76.9321 65.5809 76.9014 65.7587C77.0139 65.8908 77.1499 66.0164 77.2629 66.1669C77.7806 66.8572 78.2831 67.5545 78.622 68.3526C79.2478 69.8262 79.0892 71.1934 77.8904 72.3495C77.2833 72.9348 76.9624 72.6873 76.8263 71.9692C76.7391 71.5105 76.4936 70.9329 75.9527 70.8966C72.9418 70.6944 71.7477 69.0008 70.4489 66.5873C70.1017 65.9423 69.6843 65.3003 69.1249 64.8165C67.4434 63.3616 65.1128 64.0518 63.2998 64.8699L63.2997 64.8704ZM42.2417 47.3626C42.833 46.0909 43.3791 44.798 43.8962 43.4948C44.4735 42.0393 45.0638 40.5889 45.665 39.1428C45.2754 38.4391 45.0302 37.6737 44.903 36.8802C44.7755 36.0869 44.7553 35.282 44.8512 34.4837C44.9374 33.7656 45.0886 33.0472 45.3384 32.3669C45.5461 31.801 45.8419 31.2404 46.274 30.811C46.6537 30.434 47.1275 30.204 47.67 30.3214C47.9767 30.3877 48.1365 30.6573 48.183 30.9477C48.2348 31.2694 48.0906 31.5761 47.7774 31.6899L47.7442 31.7025L47.7145 31.7075C47.4314 31.7607 47.208 31.9169 47.0235 32.1334C46.7776 32.4218 46.6039 32.7665 46.4812 33.1226C46.3263 33.5715 46.2472 34.049 46.2135 34.5214C46.1762 35.0494 46.2003 35.5799 46.2842 36.1026C46.3395 36.4462 46.4202 36.7853 46.5307 37.1145C47.1221 35.7515 47.746 34.4022 48.4055 33.0704C49.1206 31.6265 49.9395 30.2141 50.9076 28.9224C51.6911 27.8768 52.6281 26.8913 53.7381 26.1849C54.7466 25.5433 55.8523 25.3129 57.0245 25.5675C57.8605 25.7488 58.6164 26.1209 59.1627 26.7925C59.6851 27.4344 59.9828 28.1927 60.113 29.0035C60.2657 29.9539 60.2068 30.9255 60.0185 31.8665C59.8111 32.9045 59.4712 33.911 59.0326 34.8745C58.5697 35.8909 57.9895 36.8474 57.3112 37.7359C56.6415 38.6131 55.863 39.4049 54.9771 40.0677C54.1348 40.6981 53.2022 41.1871 52.1943 41.498C51.1639 41.8158 50.1037 41.8397 49.0528 41.6111C48.4871 41.4884 47.9445 41.2888 47.4527 40.9823C47.1829 40.814 46.9282 40.625 46.6926 40.414C46.1786 41.6136 45.6696 42.8154 45.1661 44.0193C44.7348 45.0511 44.2898 46.0774 43.8274 47.096C44.7143 47.0016 45.6091 46.9856 46.5 47.019C47.8904 47.0711 49.2725 47.2796 50.6305 47.5744C51.1491 47.6868 51.6647 47.812 52.1793 47.9414C52.8047 48.0985 53.4279 48.2647 54.0488 48.4385C54.6882 48.6175 55.329 48.792 55.9707 48.962C56.5572 49.1174 57.1421 49.2784 57.7242 49.4495C58.1609 49.578 58.5983 49.705 59.0378 49.8254C59.2442 49.8819 59.4502 49.9448 59.6595 49.9902C60.0674 50.079 60.4704 50.2687 60.544 50.7268C60.5926 51.0284 60.5461 51.3443 60.3454 51.5847C60.2026 51.7558 60.0214 51.8784 59.8105 51.9512C59.6285 52.0141 59.4388 52.0481 59.2462 52.0555C59.0771 52.062 58.9072 52.0551 58.7414 52.0189C58.406 51.9463 58.0747 51.856 57.742 51.7713C57.0726 51.6009 56.403 51.4307 55.7337 51.2599C54.8528 51.035 53.971 50.8136 53.0887 50.5943C52.1298 50.3563 51.1673 50.132 50.2014 49.9224C48.7894 49.6161 47.3608 49.3609 45.9202 49.2337C44.9111 49.1446 43.8919 49.1014 42.8799 49.165C42.5516 49.8464 42.203 50.5188 41.8246 51.1739C41.48 51.7703 41.1017 52.3574 40.6656 52.8922C40.3278 53.3065 39.9297 53.7064 39.4675 53.9826C39.0619 54.2253 38.6011 54.3419 38.1324 54.2401C37.1747 54.0323 36.3966 53.5204 36.2314 52.4917C36.144 51.9476 36.2832 51.41 36.5226 50.9222C36.8028 50.3509 37.228 49.866 37.7055 49.449C38.2973 48.9321 38.98 48.5348 39.6901 48.2013C40.5036 47.8192 41.3643 47.5545 42.2417 47.3626ZM51.4554 75.307C50.1328 75.8328 49.2128 76.7468 48.6838 78.0613L48.6137 78.2357H47.8697L47.7996 78.0613C47.2706 76.7468 46.3506 75.8328 45.028 75.307L44.8525 75.2373V74.498L45.028 74.4284C46.3506 73.9027 47.2706 72.9887 47.7996 71.6743L47.8697 71.5H48.6137L48.6838 71.6743C49.2128 72.9887 50.1328 73.9027 51.4554 74.4284L51.6309 74.498V75.2373L51.4554 75.307ZM37.4378 81.4329C37.3451 82.8195 37.5301 84.538 38.1874 85.5506C38.8092 86.5092 39.7626 87.2299 40.953 87.1998C42.2952 87.166 43.3593 86.2051 43.9396 85.0648C44.8554 83.265 44.6896 81.0434 44.1443 79.162C43.6309 77.3903 42.0009 75.678 40.8706 74.2066C38.0194 73.6948 36.2112 73.851 33.4232 74.3607C31.9104 74.6374 30.4376 74.8757 28.9018 75.0055C27.3474 75.1365 24.2734 75.4201 22.7787 74.9385C21.3692 74.4844 21.2303 73.5762 21.6675 72.3033C21.8451 71.787 22.9091 71.2039 23.365 70.9276C23.6791 70.7375 25.1593 69.8582 25.5443 69.4371C25.181 69.3537 24.3944 69.3073 24.2016 69.2968C23.0212 69.2313 21.3601 69.8353 20.2399 70.2127C19.0458 70.6151 17.6248 71.1227 16.3619 71.17C14.1027 71.2547 13.2485 69.8611 13.1676 67.7392C13.1275 66.6906 14.6873 65.6305 15.4319 65.0608C16.2641 64.4238 17.1946 63.7245 17.869 62.9239C18.1408 62.601 18.4288 62.1986 18.5673 61.7997C18.6174 61.6562 18.6669 61.4542 18.6172 61.3045C18.5692 61.1593 18.4013 61.0583 18.2708 60.9977C17.8653 60.8091 17.3037 60.7512 16.8622 60.7305C15.7105 60.6759 13.327 61.8579 12.2614 62.3531C10.7525 63.0543 7.85738 64.516 6.18501 64.1106C4.0689 63.5978 4.47057 61.0068 4.85548 59.4427C4.85757 59.1182 3.44345 57.6097 3.19219 57.3347C2.22294 56.2739 -0.174776 53.9341 1.08897 52.4035C1.39033 52.0384 2.19788 52.143 2.62106 52.1665C4.1286 52.2507 9.39172 52.5693 10.4488 51.5764C10.6623 51.3756 10.1051 50.782 9.98958 50.6605C9.78997 50.4522 7.96719 50.3025 7.64069 50.271C6.65784 50.1767 5.67395 50.0794 4.70527 49.8836C1.48238 49.2321 -0.582568 47.6336 0.146563 44.0704C0.343332 43.1089 1.6355 42.9305 2.43509 42.7771C2.85081 42.6973 3.95726 42.5103 4.23636 42.1909C4.74404 41.6102 2.03188 39.2726 1.72426 39.0072C1.25239 38.6001 0.922217 38.052 1.39776 37.5076C1.79246 37.0556 2.76039 37.0795 3.31568 37.0621C4.40712 37.0277 5.87472 36.9815 6.82884 36.4143C9.19049 35.0104 6.53152 30.5168 5.6328 29.024C4.69394 27.4644 4.68705 25.4595 5.64593 23.907C5.96414 23.3916 6.38795 22.9375 6.90247 22.6111C7.43174 22.2752 8.02968 22.0922 8.65988 22.0937C10.6471 22.0983 12.1425 23.8628 13.0503 25.4274C13.0764 25.4724 13.1035 25.5208 13.1314 25.5704C13.4472 24.7384 13.8657 22.4525 13.9462 22.0413C14.6488 18.4508 15.9351 10.3319 20.9095 10.735C21.8538 10.8116 21.9045 12.0277 21.9709 12.7349C21.9861 12.8994 22.0286 13.4352 22.0871 13.7374C22.7703 13.0645 24.6382 9.64943 24.8967 9.17679C25.6631 7.77642 27.0212 6.88582 28.6538 7.01184C29.2418 7.05716 29.8176 7.23966 30.3218 7.54427C30.8288 7.85075 31.2539 8.27633 31.5439 8.7921C32.3381 10.2041 31.9057 11.7597 31.0044 13.0051C30.9464 13.0852 30.8736 13.165 30.809 13.2403L30.7993 13.2515L30.7884 13.2619C25.6514 18.0901 23.0488 25.0121 22.5186 31.9367C21.3889 39.9975 22.6336 43.9264 25.6621 51.2308C27.1129 54.1207 28.7781 56.7533 30.834 59.2541C32.2666 60.9964 33.8725 62.6097 35.261 64.3775C35.4201 64.5802 35.576 64.785 35.7283 64.9927C36.5635 66.1319 37.4787 67.2196 38.3868 68.3019C39.5699 69.7121 40.7469 71.1208 41.8941 72.5751C43.2049 74.3853 45.0758 76.6067 45.6982 78.7545C46.359 81.0343 46.3281 83.571 45.2924 85.7386C44.5382 87.3174 43.1271 88.8263 41.2789 88.9863C39.4632 89.1437 38.0533 87.9217 37.1346 86.4887C35.6382 84.1542 35.5542 81.3128 37.2215 79.0528C37.5331 78.4953 38.096 78.1137 38.748 78.1137C39.811 78.1137 40.5406 79.0801 40.5406 80.0872C40.5406 81.0943 39.811 82.0604 38.748 82.0604C38.2164 82.0604 37.7579 81.8118 37.4378 81.4329ZM66.5278 33.2712C70.7759 30.6386 68.5855 27.9547 64.8857 26.4846C61.9838 25.3314 59.0962 24.0628 56.1232 23.1023C49.5825 20.9891 47.9445 19.3316 49.6601 12.5134L50.0494 10.9655L50.2085 12.5533C50.3227 13.6957 50.3364 14.8124 50.3914 15.9544C50.4255 16.6674 50.4831 17.4761 50.8034 18.1265C51.6375 19.8196 54.851 20.6089 56.4998 21.0446C58.1255 21.4744 59.6865 21.9878 61.239 22.6324C62.7178 23.2463 64.1634 23.9495 65.6109 24.6324C67.2265 25.3949 68.8535 26.5491 69.7421 28.1304C70.3693 29.2462 70.6053 30.5937 70.0208 31.7784C69.393 33.0513 68.0659 33.6566 66.7013 33.7828L65.5279 33.8909L66.5278 33.2712ZM29.8949 33.7828C28.5305 33.6566 27.2036 33.0513 26.5755 31.7787C25.991 30.5937 26.2271 29.2463 26.8541 28.1305C27.7428 26.5491 29.3698 25.3949 30.9855 24.6324C32.4325 23.9495 33.8783 23.2465 35.3566 22.6326C36.9091 21.9879 38.4705 21.4746 40.0963 21.0446C41.7453 20.6089 44.959 19.8196 45.7929 18.1264C46.1134 17.4761 46.171 16.6674 46.2052 15.9544C46.2601 14.8121 46.2738 13.6956 46.3882 12.5531L46.5472 10.9655L46.9366 12.5134C48.6518 19.3316 47.0138 20.9891 40.4731 23.1023C37.5001 24.0628 34.6125 25.3314 31.7106 26.4846C28.0107 27.9547 25.8203 30.6386 30.0685 33.2712L31.0685 33.8909L29.8949 33.7828ZM47.0138 63.4153C47.153 63.9844 47.4135 64.5899 47.7586 65.0632C47.826 65.1556 48.0562 65.4501 48.1865 65.5214C48.3524 65.4424 48.4678 65.2106 48.551 65.0674C48.851 64.5513 48.9102 63.9077 49.1454 63.3615C49.9408 61.5135 52.6559 60.0886 54.3222 59.0655C60.1794 55.4698 63.2897 50.376 64.3766 43.7136C64.7058 41.6952 64.7999 39.7281 64.9623 37.6998C65.0293 36.8625 65.1136 34.9539 65.9918 34.5206C66.1209 34.4567 66.2599 34.4242 66.4037 34.4185L66.6825 34.4076L66.6936 34.6848C66.9357 40.7885 66.4548 47.9216 63.1761 53.2782C61.0996 56.6705 58.5375 58.4904 55.2276 60.5222C53.8741 61.3532 51.7272 62.4549 50.8677 63.7982C50.4474 64.4554 50.2652 65.3363 49.8476 66.0467C49.4878 66.6587 48.9536 67.2333 48.1903 67.2447C47.4158 67.2562 46.786 66.6514 46.3618 66.0696C45.9585 65.5168 45.3777 64.3517 45.3116 63.6762C45.2863 63.418 44.1177 62.7823 43.9064 62.6637C42.668 61.9683 41.47 61.3011 40.2981 60.4907C37.1531 58.3159 34.7133 55.5872 32.9681 52.186C30.2237 46.8375 29.5948 40.5928 29.9077 34.6743L29.9224 34.398L30.2004 34.4121C30.3186 34.4179 30.433 34.4446 30.5405 34.4937C31.3987 34.8864 31.4852 36.7818 31.5509 37.5791C31.7162 39.5878 31.8099 41.546 32.1141 43.5478C33.0875 49.9532 35.7634 55.1973 41.1182 59.0874C42.312 59.9546 46.7726 62.0443 47.0138 63.4153ZM77.5894 70.4837C77.9482 69.2671 76.9444 67.9018 76.2552 66.9832C75.9847 66.6225 75.5387 66.0938 75.6297 65.6135C75.7734 64.8547 75.9717 63.4509 77.0691 63.6917C77.373 63.7584 77.6639 63.9689 77.9173 64.1418C79.4294 65.1737 80.7562 65.5555 82.6153 65.5555C86.8967 65.5555 89.9497 62.914 91.3599 59.0394C91.6553 58.2281 91.9011 57.2912 91.9502 56.4264C91.9523 56.3882 91.9557 56.3376 91.9593 56.2802C90.4023 57.7121 88.1582 58.2203 86.0752 58.127C85.3067 58.0926 84.4967 57.9753 83.7629 57.7413C83.2519 57.5787 82.5668 57.2812 82.2636 56.8164C82.1006 56.5663 82.0419 56.2843 82.1159 55.9935C82.545 54.3066 84.2672 54.1112 85.7261 53.8977C87.3335 53.6626 88.906 53.4 89.8308 52.0382C89.023 52.2191 88.1352 52.2699 87.3518 52.176C86.8811 52.1198 86.3788 52.003 85.9584 51.7796C85.5062 51.539 85.1544 51.1739 85.0545 50.6622C84.9975 50.3704 85.0351 50.0803 85.1382 49.8041C85.2599 48.1874 87.5624 48.0427 88.7922 47.8803C90.0006 47.7209 91.7682 47.5179 92.72 46.7428C94.0001 45.7004 94.4545 43.7575 94.6233 42.1993C94.6704 41.7643 94.6989 41.3268 94.7131 40.8894C94.7819 38.7558 94.5181 35.9269 93.9712 33.841C93.691 32.7721 93.3052 31.6698 92.7501 30.7085C92.6396 30.5171 92.5185 30.3226 92.387 30.1356C92.1764 31.5774 91.2372 32.8296 90.3816 33.9839C89.8758 34.6662 89.3417 35.375 88.9627 36.1361C88.5542 36.9567 87.7338 37.2086 86.8723 37.0079C86.3394 36.8836 85.833 36.5955 85.4185 36.2446C84.9468 35.8455 84.5617 35.3403 84.302 34.7814C83.5028 33.0614 84.0209 31.3065 85.1768 29.8882C86.1075 28.7466 86.4296 27.3008 86.4296 25.8569C86.4296 23.954 85.8819 21.9349 85.1544 20.1843C84.8083 19.3517 84.2621 18.1946 83.6654 17.3564C83.4017 19.0295 82.757 22.5876 81.7257 22.8139C80.7092 23.0368 80.3626 21.3221 80.2371 20.6585C79.1702 15.0247 75.4368 13.8272 70.5359 12.7041C69.1972 12.3972 67.7556 12.0804 66.456 11.543C66.678 11.866 66.8905 12.195 67.0918 12.5389C68.1862 14.4074 69.4696 16.1909 70.6464 18.0039C71.0536 18.5708 71.4147 19.1663 71.7381 19.7759C71.9386 20.1318 72.1421 20.5127 72.2865 20.8954C73.874 24.3998 74.7054 28.5525 75.4217 32.3186L75.4238 32.329L75.4247 32.3395C75.5092 33.0944 75.5714 33.8516 75.6109 34.6098C76.5485 33.4167 78.0135 32.5688 79.2617 31.7971C80.5323 31.0116 81.3187 30.2557 81.7723 28.8057C81.8088 28.6885 81.87 28.5203 81.8907 28.3999C81.9035 28.2798 82.0693 27.9221 82.1121 27.8146L82.4091 27.0693L82.6392 27.8375C82.7998 28.3742 82.8464 28.404 82.8202 28.9845C82.7382 30.8067 81.6539 32.1386 80.2628 33.219C78.3345 34.7165 76.632 34.7194 75.6557 37.2286C75.6048 40.0597 75.2248 42.8569 74.5315 45.5967C75.401 44.7366 76.4594 43.9811 77.4961 43.4544C78.6986 42.8438 79.9418 42.3335 81.1213 41.6703C81.6617 41.3662 82.2966 40.9782 82.7273 40.5308C82.7767 40.4796 82.8368 40.4212 82.8857 40.3648C82.9009 40.3378 82.9209 40.3121 82.9447 40.2889C82.9563 40.278 82.9683 40.2674 82.98 40.2567C83.0468 40.1952 83.1134 40.1337 83.1798 40.072L83.661 39.6248L83.6427 40.6463L83.6376 40.6711C83.3128 42.272 79.7314 44.1569 78.381 45.003C77.2499 45.7116 76.1143 46.2496 75.1021 47.1439C73.8993 48.2065 73.7954 48.7672 73.0982 50.1248L73.0442 50.2298C72.5662 51.4597 72.0302 52.6663 71.447 53.8506C71.1816 54.3899 70.8972 54.9194 70.5959 55.4394C71.2656 55.1237 71.9822 54.9317 72.7455 54.9148C73.8081 54.8915 73.9962 55.0444 75.0239 54.5957C76.2489 54.0609 77.5963 53.8475 78.8115 53.2866C79.1067 53.1501 79.3923 52.993 79.6615 52.8057L80.3509 52.3356L80.2593 53.2197L80.2482 53.251C80.0082 53.9237 78.6108 54.6556 77.9773 54.9651C77.2696 55.311 76.4973 55.5653 75.8157 55.9332L75.2882 56.2398L75.2779 56.2446C74.9579 56.3981 74.6323 56.5018 74.2829 56.5634C73.8081 56.647 73.3212 56.6499 72.8419 56.6976C70.7643 56.9039 69.6207 57.8826 68.1627 59.2587C67.8451 59.5583 67.5453 59.8764 67.2402 60.1884C66.9694 60.5197 66.6952 60.8483 66.419 61.1754C65.9255 61.7601 65.4256 62.3395 64.928 62.9208C66.45 62.3853 68.1677 62.1309 69.5232 63.1412C70.4433 63.827 71.0297 64.9501 71.562 65.9392C72.6052 67.878 73.543 69.4051 76.0317 69.5723C76.7208 69.6186 77.2369 69.9658 77.5894 70.4837ZM47.4139 38.7084C47.6289 38.9596 47.8746 39.181 48.1483 39.3689C48.5242 39.6266 48.9504 39.7867 49.3946 39.8833C50.1856 40.0548 50.974 40.0263 51.7486 39.7893C52.5589 39.5414 53.3079 39.1479 53.9855 38.6428C54.7145 38.0994 55.3592 37.4532 55.9188 36.7394C56.4915 36.0087 56.9874 35.2225 57.3897 34.3865C57.7673 33.6018 58.0598 32.7786 58.2378 31.9264C58.3889 31.2043 58.4441 30.4546 58.3265 29.7235C58.2289 29.1159 58.0008 28.5626 57.5947 28.0938C57.1618 27.5939 56.5533 27.3281 55.9167 27.1898C55.1447 27.0223 54.4568 27.2974 53.8508 27.7699C52.9771 28.4514 52.2461 29.3808 51.6414 30.3003C50.8136 31.5587 50.095 32.8936 49.4426 34.249C48.7343 35.7206 48.0595 37.2085 47.4139 38.7084ZM41.2843 49.3451C40.8294 49.4216 40.3784 49.5292 39.9473 49.6896C39.4766 49.8647 39.0014 50.0832 38.6054 50.3953C38.3582 50.59 38.1033 50.8363 37.9659 51.1222C37.8839 51.2928 37.826 51.485 37.8566 51.6754C37.9183 52.0593 38.2119 52.2116 38.5627 52.2877C39.1277 52.4103 39.6166 51.9089 39.9284 51.5089C40.4465 50.8437 40.8885 50.0977 41.2843 49.3451ZM39.4892 72.5346C37.723 70.5317 35.8345 68.5833 34.2753 66.4267C32.5073 63.9812 30.3909 61.7891 28.5221 59.4166C28.4678 59.3635 28.413 59.3108 28.3579 59.2587C26.8997 57.883 25.7564 56.9039 23.6788 56.6976C22.775 56.6078 22.0997 56.6553 21.2426 56.2446L21.2324 56.2398L20.7126 55.9375C20.0234 55.5653 19.2512 55.311 18.5432 54.9651C17.9098 54.6556 16.5117 53.9237 16.2725 53.2509L16.2616 53.2197L16.1686 52.3352L16.8612 52.8072C18.2156 53.7499 19.9994 53.9422 21.4963 54.5957C22.5244 55.0444 22.7123 54.8915 23.7753 54.9148C24.466 54.9301 25.1201 55.0888 25.7367 55.3545C25.4536 54.8619 25.1856 54.3606 24.9348 53.8506C24.1744 52.3064 23.4952 50.725 22.9184 49.1042C22.5013 48.2495 22.1536 47.7934 21.4185 47.1439C20.4063 46.2496 19.2703 45.7116 18.1395 45.003C16.789 44.1569 13.2078 42.272 12.8828 40.6711L12.8777 40.6463L12.8599 39.625L13.3409 40.072C13.4074 40.1341 13.4744 40.1959 13.5412 40.2574C13.5531 40.2681 13.5647 40.2789 13.5855 40.2979C13.6108 40.3215 13.6303 40.348 13.6445 40.3759C13.6914 40.4287 13.7468 40.483 13.7929 40.5308C14.8922 41.672 17.5594 42.7103 19.0246 43.4544C19.9983 43.9491 20.9783 44.6377 21.8057 45.4193C21.11 42.6142 20.744 39.751 20.721 36.8554C20.4356 36.1465 20.1404 35.7852 19.515 35.2891C18.5086 34.4908 17.2863 34.0175 16.2579 33.219C14.8669 32.1387 13.7824 30.8068 13.7003 28.9845C13.674 28.4038 13.7204 28.3744 13.8816 27.8374L14.1116 27.07L14.4084 27.8146C14.4509 27.9216 14.6174 28.2805 14.63 28.4003C14.6504 28.5204 14.7116 28.6887 14.748 28.8057C15.2015 30.2557 15.9881 31.0116 17.2587 31.7971C18.459 32.5392 19.8414 33.3411 20.7796 34.4505C20.8192 33.7454 20.8785 33.0414 20.9571 32.3395L20.9583 32.329L20.9604 32.3186C22.6951 23.1993 23.4263 19.5909 29.6967 12.2954L29.8243 12.1471C30.3682 11.3918 30.7616 10.3796 30.2662 9.49938C30.0997 9.20355 29.8509 8.96178 29.5604 8.78633C29.2535 8.60078 28.9016 8.49088 28.5436 8.46342C27.5012 8.38296 26.6653 8.98759 26.1816 9.87153C25.3986 11.3026 24.3709 13.1456 23.2582 14.3505C22.8199 14.8252 22.0704 15.5142 21.37 15.1359C20.6514 14.7474 20.5827 13.591 20.5147 12.8672C20.4895 12.5994 20.5423 12.3865 20.5649 12.177C20.2665 12.1779 19.975 12.2298 19.6924 12.3387C16.9565 13.3917 15.8991 19.6843 15.3838 22.3161C15.1777 23.3696 14.7096 26.54 13.7136 27.1107C12.8479 27.6064 12.1864 26.8465 11.7832 26.1516C11.1744 25.1023 10.0352 23.5499 8.65851 23.5467C8.30987 23.5459 7.98161 23.6504 7.689 23.8361C7.36283 24.0432 7.09615 24.3394 6.89467 24.6657C6.21861 25.7604 6.22711 27.1789 6.88863 28.2776C8.3335 30.6777 10.9939 35.6316 7.57957 37.6618C6.35118 38.3921 4.76356 38.4711 3.36628 38.5147C4.61489 39.6588 6.57629 41.7308 5.34236 43.1431C4.738 43.8348 3.5824 44.0386 2.71123 44.2059C2.5178 44.243 1.80547 44.366 1.56026 44.4616C1.0853 47.0108 2.70711 47.9963 4.99751 48.4592C5.9137 48.6445 6.84973 48.735 7.77942 48.8243C8.65425 48.9082 10.4227 48.999 11.0545 49.6631C11.8681 50.518 12.4786 51.671 11.4527 52.635C9.93296 54.0626 4.59397 53.7337 2.54027 53.6189C2.37377 53.6095 2.27142 53.578 2.17616 53.522C2.25804 54.2306 4.00262 56.057 4.27551 56.3558C4.9557 57.0999 6.54957 58.6714 6.27885 59.7737C6.14402 60.3233 5.60929 62.4748 6.52985 62.6979C7.67741 62.976 10.5753 61.5325 11.6424 61.0367C13.0196 60.397 15.4106 59.2058 16.9312 59.2779C17.5786 59.3086 18.2978 59.4057 18.8901 59.681C19.41 59.9225 19.826 60.2969 20.009 60.8491C20.1649 61.3194 20.1102 61.812 19.9494 62.2736C19.7499 62.846 19.3821 63.394 18.9922 63.8573C18.2398 64.7513 17.2521 65.5032 16.3257 66.212C16.0727 66.4057 14.6927 67.433 14.6292 67.6866C14.6741 68.8672 14.9926 69.7671 16.3092 69.7173C17.3848 69.6769 18.7475 69.1792 19.7702 68.8347C21.1244 68.3779 22.8435 67.7646 24.2825 67.8442C25.2093 67.8957 27.1658 68.0809 27.0914 69.4014C27.0294 70.5054 25.0175 71.6302 24.1275 72.1694C23.8296 72.3496 23.3144 72.6249 23.0296 72.8429C22.9247 73.1491 22.8448 73.4312 23.2277 73.5545C24.4556 73.9503 27.4952 73.6626 28.7801 73.5541C30.2683 73.4286 31.6934 73.1989 33.1593 72.9308C35.4825 72.5058 37.2124 72.2889 39.4892 72.5346Z" fill="#231F20"/>
</svg>
